<?xml version="1.0"?>
<svg xmlns="http://www.w3.org/2000/svg" viewBox="0 0 80 80">
    <path style="line-height:normal;text-indent:0;text-align:start;text-decoration-line:none;text-decoration-style:solid;text-decoration-color:#000;text-transform:none;block-progression:tb;isolation:auto;mix-blend-mode:normal" d="M 10 8 C 7.8027056 8 6 9.8027056 6 12 C 6 14.197294 7.8027056 16 10 16 C 12.197294 16 14 14.197294 14 12 C 14 11.391262 13.850294 10.819008 13.603516 10.300781 C 16.926186 11.180501 19.534316 13.915659 20.154297 17.439453 L 27.65625 60.041016 C 28.130788 62.73495 30.380409 64.7283 33.066406 64.955078 C 32.408423 65.801887 32 66.851178 32 68 C 32 70.749579 34.250421 73 37 73 C 39.749579 73 42 70.749579 42 68 C 42 66.872038 41.607244 65.839053 40.970703 65 L 54.029297 65 C 53.392756 65.839053 53 66.872038 53 68 C 53 70.749579 55.250421 73 58 73 C 60.749579 73 63 70.749579 63 68 C 63 66.872038 62.607244 65.839053 61.970703 65 L 67 65 L 67 63 L 33.566406 63 C 31.618187 63 29.964928 61.61203 29.626953 59.693359 L 28.271484 52 L 60.269531 52 C 63.500633 52 66.322544 49.775451 67.076172 46.632812 L 72.244141 25.097656 L 22.824219 21.064453 L 22.125 17.091797 C 21.201024 11.840186 16.625749 8 11.292969 8 L 10 8 z M 10 10 C 11.116414 10 12 10.883586 12 12 C 12 13.116414 11.116414 14 10 14 C 8.8835859 14 8 13.116414 8 12 C 8 10.883586 8.8835859 10 10 10 z M 23.183594 23.099609 L 69.755859 26.900391 L 65.130859 46.166016 C 64.590487 48.419377 62.58643 50 60.269531 50 L 27.919922 50 L 23.183594 23.099609 z M 34 29 A 1 1 0 0 0 33 30 A 1 1 0 0 0 34 31 A 1 1 0 0 0 35 30 A 1 1 0 0 0 34 29 z M 40 29 A 1 1 0 0 0 39 30 A 1 1 0 0 0 40 31 A 1 1 0 0 0 41 30 A 1 1 0 0 0 40 29 z M 46 29 A 1 1 0 0 0 45 30 A 1 1 0 0 0 46 31 A 1 1 0 0 0 47 30 A 1 1 0 0 0 46 29 z M 52 29 A 1 1 0 0 0 51 30 A 1 1 0 0 0 52 31 A 1 1 0 0 0 53 30 A 1 1 0 0 0 52 29 z M 58 29 A 1 1 0 0 0 57 30 A 1 1 0 0 0 58 31 A 1 1 0 0 0 59 30 A 1 1 0 0 0 58 29 z M 34 33 A 1 1 0 0 0 33 34 A 1 1 0 0 0 34 35 A 1 1 0 0 0 35 34 A 1 1 0 0 0 34 33 z M 40 33 A 1 1 0 0 0 39 34 A 1 1 0 0 0 40 35 A 1 1 0 0 0 41 34 A 1 1 0 0 0 40 33 z M 46 33 A 1 1 0 0 0 45 34 A 1 1 0 0 0 46 35 A 1 1 0 0 0 47 34 A 1 1 0 0 0 46 33 z M 52 33 A 1 1 0 0 0 51 34 A 1 1 0 0 0 52 35 A 1 1 0 0 0 53 34 A 1 1 0 0 0 52 33 z M 58 33 A 1 1 0 0 0 57 34 A 1 1 0 0 0 58 35 A 1 1 0 0 0 59 34 A 1 1 0 0 0 58 33 z M 34 37 A 1 1 0 0 0 33 38 A 1 1 0 0 0 34 39 A 1 1 0 0 0 35 38 A 1 1 0 0 0 34 37 z M 40 37 A 1 1 0 0 0 39 38 A 1 1 0 0 0 40 39 A 1 1 0 0 0 41 38 A 1 1 0 0 0 40 37 z M 46 37 A 1 1 0 0 0 45 38 A 1 1 0 0 0 46 39 A 1 1 0 0 0 47 38 A 1 1 0 0 0 46 37 z M 52 37 A 1 1 0 0 0 51 38 A 1 1 0 0 0 52 39 A 1 1 0 0 0 53 38 A 1 1 0 0 0 52 37 z M 58 37 A 1 1 0 0 0 57 38 A 1 1 0 0 0 58 39 A 1 1 0 0 0 59 38 A 1 1 0 0 0 58 37 z M 34 41 A 1 1 0 0 0 33 42 A 1 1 0 0 0 34 43 A 1 1 0 0 0 35 42 A 1 1 0 0 0 34 41 z M 40 41 A 1 1 0 0 0 39 42 A 1 1 0 0 0 40 43 A 1 1 0 0 0 41 42 A 1 1 0 0 0 40 41 z M 46 41 A 1 1 0 0 0 45 42 A 1 1 0 0 0 46 43 A 1 1 0 0 0 47 42 A 1 1 0 0 0 46 41 z M 52 41 A 1 1 0 0 0 51 42 A 1 1 0 0 0 52 43 A 1 1 0 0 0 53 42 A 1 1 0 0 0 52 41 z M 58 41 A 1 1 0 0 0 57 42 A 1 1 0 0 0 58 43 A 1 1 0 0 0 59 42 A 1 1 0 0 0 58 41 z M 34 45 A 1 1 0 0 0 33 46 A 1 1 0 0 0 34 47 A 1 1 0 0 0 35 46 A 1 1 0 0 0 34 45 z M 40 45 A 1 1 0 0 0 39 46 A 1 1 0 0 0 40 47 A 1 1 0 0 0 41 46 A 1 1 0 0 0 40 45 z M 46 45 A 1 1 0 0 0 45 46 A 1 1 0 0 0 46 47 A 1 1 0 0 0 47 46 A 1 1 0 0 0 46 45 z M 52 45 A 1 1 0 0 0 51 46 A 1 1 0 0 0 52 47 A 1 1 0 0 0 53 46 A 1 1 0 0 0 52 45 z M 58 45 A 1 1 0 0 0 57 46 A 1 1 0 0 0 58 47 A 1 1 0 0 0 59 46 A 1 1 0 0 0 58 45 z M 37 65 C 38.668699 65 40 66.331301 40 68 C 40 69.668699 38.668699 71 37 71 C 35.331301 71 34 69.668699 34 68 C 34 66.331301 35.331301 65 37 65 z M 58 65 C 59.668699 65 61 66.331301 61 68 C 61 69.668699 59.668699 71 58 71 C 56.331301 71 55 69.668699 55 68 C 55 66.331301 56.331301 65 58 65 z M 37 67 A 1 1 0 0 0 36 68 A 1 1 0 0 0 37 69 A 1 1 0 0 0 38 68 A 1 1 0 0 0 37 67 z M 58 67 A 1 1 0 0 0 57 68 A 1 1 0 0 0 58 69 A 1 1 0 0 0 59 68 A 1 1 0 0 0 58 67 z"/>
</svg>
